<mxfile host="app.diagrams.net" agent="Mozilla/5.0 (Windows NT 10.0; Win64; x64) AppleWebKit/537.36 (KHTML, like Gecko) Chrome/130.0.0.0 Safari/537.36" version="24.8.3">
  <diagram name="Page-1" id="8AzohjkiPJaFXsv7H4kR">
    <mxGraphModel dx="794" dy="493" grid="1" gridSize="10" guides="1" tooltips="1" connect="1" arrows="1" fold="1" page="1" pageScale="1" pageWidth="827" pageHeight="1169" math="0" shadow="0">
      <root>
        <mxCell id="0" />
        <mxCell id="1" parent="0" />
        <mxCell id="ZqbZmfWzhe083Lsz4k_u-9" value="Admin" style="shape=umlActor;verticalLabelPosition=bottom;verticalAlign=top;html=1;outlineConnect=0;" vertex="1" parent="1">
          <mxGeometry x="220" y="160" width="30" height="60" as="geometry" />
        </mxCell>
        <mxCell id="ZqbZmfWzhe083Lsz4k_u-10" value="Manage Users" style="ellipse;whiteSpace=wrap;html=1;" vertex="1" parent="1">
          <mxGeometry x="432.5" y="110" width="125" height="40" as="geometry" />
        </mxCell>
        <mxCell id="ZqbZmfWzhe083Lsz4k_u-13" value="Manage Roles" style="ellipse;whiteSpace=wrap;html=1;" vertex="1" parent="1">
          <mxGeometry x="430" y="180" width="130" height="40" as="geometry" />
        </mxCell>
        <mxCell id="ZqbZmfWzhe083Lsz4k_u-14" value="Manage Businesses" style="ellipse;whiteSpace=wrap;html=1;" vertex="1" parent="1">
          <mxGeometry x="432.5" y="250" width="130" height="40" as="geometry" />
        </mxCell>
        <mxCell id="ZqbZmfWzhe083Lsz4k_u-15" value="User" style="shape=umlActor;verticalLabelPosition=bottom;verticalAlign=top;html=1;outlineConnect=0;" vertex="1" parent="1">
          <mxGeometry x="220" y="460" width="30" height="60" as="geometry" />
        </mxCell>
        <mxCell id="ZqbZmfWzhe083Lsz4k_u-16" value="Register Business" style="ellipse;whiteSpace=wrap;html=1;" vertex="1" parent="1">
          <mxGeometry x="432.5" y="440" width="130" height="40" as="geometry" />
        </mxCell>
        <mxCell id="ZqbZmfWzhe083Lsz4k_u-17" value="Add/Update/Delete Products" style="ellipse;whiteSpace=wrap;html=1;" vertex="1" parent="1">
          <mxGeometry x="432.5" y="500" width="130" height="40" as="geometry" />
        </mxCell>
        <mxCell id="ZqbZmfWzhe083Lsz4k_u-18" value="View Business Ratings" style="ellipse;whiteSpace=wrap;html=1;" vertex="1" parent="1">
          <mxGeometry x="432.5" y="565" width="130" height="40" as="geometry" />
        </mxCell>
        <mxCell id="ZqbZmfWzhe083Lsz4k_u-19" value="View Business Ratings" style="ellipse;whiteSpace=wrap;html=1;" vertex="1" parent="1">
          <mxGeometry x="432.5" y="690" width="130" height="40" as="geometry" />
        </mxCell>
        <mxCell id="ZqbZmfWzhe083Lsz4k_u-20" value="Customer" style="shape=umlActor;verticalLabelPosition=bottom;verticalAlign=top;html=1;outlineConnect=0;" vertex="1" parent="1">
          <mxGeometry x="220" y="830" width="30" height="60" as="geometry" />
        </mxCell>
        <mxCell id="ZqbZmfWzhe083Lsz4k_u-21" value="Search and Filter Products" style="ellipse;whiteSpace=wrap;html=1;" vertex="1" parent="1">
          <mxGeometry x="427.5" y="770" width="130" height="40" as="geometry" />
        </mxCell>
        <mxCell id="ZqbZmfWzhe083Lsz4k_u-22" value="View Order History" style="ellipse;whiteSpace=wrap;html=1;" vertex="1" parent="1">
          <mxGeometry x="432.5" y="900" width="130" height="40" as="geometry" />
        </mxCell>
        <mxCell id="ZqbZmfWzhe083Lsz4k_u-23" value="Make Payment" style="ellipse;whiteSpace=wrap;html=1;" vertex="1" parent="1">
          <mxGeometry x="432.5" y="970" width="130" height="40" as="geometry" />
        </mxCell>
        <mxCell id="ZqbZmfWzhe083Lsz4k_u-24" value="" style="endArrow=classic;html=1;rounded=0;entryX=0;entryY=0.5;entryDx=0;entryDy=0;" edge="1" parent="1" target="ZqbZmfWzhe083Lsz4k_u-10">
          <mxGeometry width="50" height="50" relative="1" as="geometry">
            <mxPoint x="260" y="180" as="sourcePoint" />
            <mxPoint x="310" y="130" as="targetPoint" />
          </mxGeometry>
        </mxCell>
        <mxCell id="ZqbZmfWzhe083Lsz4k_u-25" value="" style="endArrow=classic;html=1;rounded=0;entryX=0;entryY=0.5;entryDx=0;entryDy=0;" edge="1" parent="1" target="ZqbZmfWzhe083Lsz4k_u-13">
          <mxGeometry width="50" height="50" relative="1" as="geometry">
            <mxPoint x="260" y="200" as="sourcePoint" />
            <mxPoint x="310" y="160" as="targetPoint" />
          </mxGeometry>
        </mxCell>
        <mxCell id="ZqbZmfWzhe083Lsz4k_u-26" value="" style="endArrow=classic;html=1;rounded=0;entryX=0;entryY=0.5;entryDx=0;entryDy=0;" edge="1" parent="1" target="ZqbZmfWzhe083Lsz4k_u-14">
          <mxGeometry width="50" height="50" relative="1" as="geometry">
            <mxPoint x="260" y="230" as="sourcePoint" />
            <mxPoint x="310" y="180" as="targetPoint" />
          </mxGeometry>
        </mxCell>
        <mxCell id="ZqbZmfWzhe083Lsz4k_u-27" value="Place Order" style="ellipse;whiteSpace=wrap;html=1;" vertex="1" parent="1">
          <mxGeometry x="432.5" y="840" width="130" height="40" as="geometry" />
        </mxCell>
        <mxCell id="ZqbZmfWzhe083Lsz4k_u-28" value="" style="endArrow=classic;html=1;rounded=0;entryX=0;entryY=0.5;entryDx=0;entryDy=0;" edge="1" parent="1" target="ZqbZmfWzhe083Lsz4k_u-16">
          <mxGeometry width="50" height="50" relative="1" as="geometry">
            <mxPoint x="270" y="480" as="sourcePoint" />
            <mxPoint x="320" y="430" as="targetPoint" />
          </mxGeometry>
        </mxCell>
        <mxCell id="ZqbZmfWzhe083Lsz4k_u-29" value="" style="endArrow=classic;html=1;rounded=0;entryX=0;entryY=0.5;entryDx=0;entryDy=0;" edge="1" parent="1" target="ZqbZmfWzhe083Lsz4k_u-17">
          <mxGeometry width="50" height="50" relative="1" as="geometry">
            <mxPoint x="270" y="500" as="sourcePoint" />
            <mxPoint x="320" y="450" as="targetPoint" />
          </mxGeometry>
        </mxCell>
        <mxCell id="ZqbZmfWzhe083Lsz4k_u-30" value="" style="endArrow=classic;html=1;rounded=0;entryX=0;entryY=0.5;entryDx=0;entryDy=0;" edge="1" parent="1" target="ZqbZmfWzhe083Lsz4k_u-18">
          <mxGeometry width="50" height="50" relative="1" as="geometry">
            <mxPoint x="270" y="530" as="sourcePoint" />
            <mxPoint x="320" y="480" as="targetPoint" />
          </mxGeometry>
        </mxCell>
        <mxCell id="ZqbZmfWzhe083Lsz4k_u-31" value="" style="endArrow=classic;html=1;rounded=0;entryX=0;entryY=0.5;entryDx=0;entryDy=0;" edge="1" parent="1" target="ZqbZmfWzhe083Lsz4k_u-19">
          <mxGeometry width="50" height="50" relative="1" as="geometry">
            <mxPoint x="247.5" y="860" as="sourcePoint" />
            <mxPoint x="430" y="830" as="targetPoint" />
          </mxGeometry>
        </mxCell>
        <mxCell id="ZqbZmfWzhe083Lsz4k_u-32" value="" style="endArrow=classic;html=1;rounded=0;entryX=0;entryY=0.5;entryDx=0;entryDy=0;" edge="1" parent="1" target="ZqbZmfWzhe083Lsz4k_u-21">
          <mxGeometry width="50" height="50" relative="1" as="geometry">
            <mxPoint x="250" y="870" as="sourcePoint" />
            <mxPoint x="427.5" y="900" as="targetPoint" />
          </mxGeometry>
        </mxCell>
        <mxCell id="ZqbZmfWzhe083Lsz4k_u-33" value="" style="endArrow=classic;html=1;rounded=0;entryX=0;entryY=0.5;entryDx=0;entryDy=0;" edge="1" parent="1" target="ZqbZmfWzhe083Lsz4k_u-27">
          <mxGeometry width="50" height="50" relative="1" as="geometry">
            <mxPoint x="250" y="880" as="sourcePoint" />
            <mxPoint x="300" y="830" as="targetPoint" />
          </mxGeometry>
        </mxCell>
        <mxCell id="ZqbZmfWzhe083Lsz4k_u-35" value="" style="endArrow=classic;html=1;rounded=0;entryX=0;entryY=0.5;entryDx=0;entryDy=0;" edge="1" parent="1" target="ZqbZmfWzhe083Lsz4k_u-22">
          <mxGeometry width="50" height="50" relative="1" as="geometry">
            <mxPoint x="260" y="890" as="sourcePoint" />
            <mxPoint x="310" y="870" as="targetPoint" />
          </mxGeometry>
        </mxCell>
        <mxCell id="ZqbZmfWzhe083Lsz4k_u-40" value="" style="endArrow=classic;html=1;rounded=0;entryX=0;entryY=0.5;entryDx=0;entryDy=0;" edge="1" parent="1" target="ZqbZmfWzhe083Lsz4k_u-23">
          <mxGeometry width="50" height="50" relative="1" as="geometry">
            <mxPoint x="260" y="910" as="sourcePoint" />
            <mxPoint x="310" y="860" as="targetPoint" />
          </mxGeometry>
        </mxCell>
      </root>
    </mxGraphModel>
  </diagram>
</mxfile>
